<?xml version="1.0" encoding="iso-8859-1"?>
<!-- Generator: Adobe Illustrator 19.0.0, SVG Export Plug-In . SVG Version: 6.00 Build 0)  -->
<svg version="1.1" id="Capa_1" xmlns="http://www.w3.org/2000/svg" xmlns:xlink="http://www.w3.org/1999/xlink" x="0px" y="0px"
	 viewBox="0 0 512 512" style="enable-background:new 0 0 512 512;" xml:space="preserve">
<g>
	<rect x="137.6" y="212.56" style="fill:#6AECF0;" width="58.28" height="30"/>
	<rect x="223.74" y="212.56" style="fill:#6AECF0;" width="77.7" height="30"/>
	<polygon style="fill:#6AECF0;" points="251.85,166.274 156.334,166.274 120.423,132.405 77.343,132.405 77.343,102.405 
		132.338,102.405 168.249,136.274 251.85,136.274 	"/>
	<polygon style="fill:#6AECF0;" points="132.339,352.725 77.343,352.725 77.343,322.725 120.423,322.725 156.334,288.855 
		344.217,288.855 344.217,318.855 168.25,318.855 	"/>
	<rect x="77.34" y="212.56" style="fill:#6AECF0;" width="32.405" height="30"/>
	<polygon style="fill:#6AECF0;" points="124.552,442.652 103.521,421.258 160.605,365.146 344.217,365.146 344.217,395.146 
		172.881,395.146 	"/>
</g>
<path style="fill:#E6E6E6;" d="M371.28,0c-71.962,0-130.298,58.336-130.298,130.297c0,54.617,33.609,101.377,81.27,120.749v57.568
	l23.346,30.736l-23.346,30.736V403.8l23.346,30.736l-23.346,30.736V512h54.474l43.58-43.58V251.046
	c47.661-19.371,81.27-66.131,81.27-120.749C501.577,58.336,443.241,0,371.28,0z M371.28,136.379
	c-19.321,0-34.983-15.663-34.983-34.983s15.662-34.983,34.983-34.983s34.983,15.662,34.983,34.983S390.601,136.379,371.28,136.379z"
	/>
<path style="fill:#CCCCCC;" d="M371.28,0v66.413c19.321,0,34.983,15.662,34.983,34.983s-15.662,34.983-34.983,34.983V512h5.447
	l43.58-43.58V251.046c47.661-19.371,81.27-66.131,81.27-120.749C501.577,58.336,443.241,0,371.28,0z"/>
<path style="fill:#6AECF0;" d="M51.383,158.365c-22.585,0-40.96-18.375-40.96-40.96s18.375-40.96,40.96-40.96
	s40.96,18.375,40.96,40.96S73.968,158.365,51.383,158.365z"/>
<path style="fill:#01D9DF;" d="M51.383,158.365c0-40.96,0-63.062,0-81.921c22.585,0,40.96,18.375,40.96,40.96
	S73.968,158.365,51.383,158.365z"/>
<g>
	<path style="fill:#6AECF0;" d="M51.383,378.685c-22.585,0-40.96-18.375-40.96-40.96s18.375-40.96,40.96-40.96
		s40.96,18.375,40.96,40.96S73.968,378.685,51.383,378.685z"/>
	<path style="fill:#6AECF0;" d="M93.545,488.845c-22.585,0-40.96-18.375-40.96-40.96s18.375-40.96,40.96-40.96
		s40.96,18.375,40.96,40.96S116.131,488.845,93.545,488.845z"/>
	<path style="fill:#6AECF0;" d="M51.383,268.525c-22.585,0-40.96-18.375-40.96-40.96s18.375-40.96,40.96-40.96
		s40.96,18.375,40.96,40.96S73.968,268.525,51.383,268.525z"/>
</g>
<g>
	<path style="fill:#01D9DF;" d="M51.383,268.525c0-40.96,0-63.062,0-81.921c22.585,0,40.96,18.375,40.96,40.96
		S73.968,268.525,51.383,268.525z"/>
	<path style="fill:#01D9DF;" d="M51.383,378.685c0-40.96,0-63.062,0-81.921c22.585,0,40.96,18.375,40.96,40.96
		S73.968,378.685,51.383,378.685z"/>
	<path style="fill:#01D9DF;" d="M93.545,488.845c0-40.96,0-63.062,0-81.921c22.585,0,40.96,18.375,40.96,40.96
		S116.131,488.845,93.545,488.845z"/>
</g>
<g>
</g>
<g>
</g>
<g>
</g>
<g>
</g>
<g>
</g>
<g>
</g>
<g>
</g>
<g>
</g>
<g>
</g>
<g>
</g>
<g>
</g>
<g>
</g>
<g>
</g>
<g>
</g>
<g>
</g>
</svg>
