{
	"asset":{
		"version":"2.0",
		"generator":"Created using the official Cinema 4D glTF Exporter 1.000x284978"
	},
	"nodes":[{
		"name":"MFDoom",
		"translation":[0.0,
		0.0,
		0.0],
		"rotation":[0.7071067690849304,
		0.0,
		0.0,
		-0.7071067690849304],
		"scale":[1.0,
		1.0,
		1.0],
		"children":[1,
		2,
		3]
	},
	{
		"name":"Four",
		"translation":[-48.472110748291019,
		14.450952529907227,
		-88.21763610839844],
		"rotation":[-0.7071067690849304,
		0.0,
		0.0,
		-0.7071067690849304],
		"scale":[1.0,
		1.0,
		1.0],
		"mesh":0
	},
	{
		"name":"Inner",
		"translation":[7.0290016923526148e-15,
		-1.4212903687901412e-15,
		5.684341886080802e-14],
		"rotation":[0.0,
		-2.534844826936408e-16,
		0.0,
		-1.0],
		"scale":[10.0,
		10.0,
		10.0],
		"mesh":1
	},
	{
		"name":"MFDoomMAsk",
		"translation":[0.0,
		8.829434105523513e-30,
		3.976423614752804e-14],
		"rotation":[0.0,
		0.0,
		0.0,
		-1.0],
		"scale":[10.0,
		10.0,
		10.0],
		"mesh":2
	}],
	"scenes":[{
		"nodes":[0]
	}],
	"meshes":[{
		"name":"Four",
		"primitives":[{
			"attributes":{
				"POSITION":1,
				"NORMAL":2,
				"TEXCOORD_0":3
			},
			"indices":0,
			"material":0
		}]
	},
	{
		"name":"Inner",
		"primitives":[{
			"attributes":{
				"POSITION":5,
				"NORMAL":6,
				"TEXCOORD_0":7
			},
			"indices":4,
			"material":1
		}]
	},
	{
		"name":"MFDoomMAsk",
		"primitives":[{
			"attributes":{
				"POSITION":9,
				"NORMAL":10,
				"TEXCOORD_0":11
			},
			"indices":8,
			"material":2
		}]
	}],
	"accessors":[{
		"bufferView":0,
		"type":"SCALAR",
		"componentType":5123,
		"byteOffset":0,
		"count":160662,
		"min":[0],
		"max":[35788]
	},
	{
		"bufferView":1,
		"type":"VEC3",
		"componentType":5126,
		"byteOffset":0,
		"count":35789,
		"min":[-6.762366771697998,
		-4.395710468292236,
		-3.746598243713379],
		"max":[6.4116010665893559,
		18.675161361694337,
		8.118581771850586]
	},
	{
		"bufferView":1,
		"type":"VEC3",
		"componentType":5126,
		"byteOffset":12,
		"count":35789,
		"min":[-0.9971463680267334,
		-0.9991393089294434,
		-0.9991608262062073],
		"max":[0.996998131275177,
		0.9991333484649658,
		0.9948304295539856]
	},
	{
		"bufferView":1,
		"type":"VEC2",
		"componentType":5126,
		"byteOffset":24,
		"count":35789,
		"min":[0.0,
		0.0],
		"max":[1.0,
		1.0]
	},
	{
		"bufferView":2,
		"type":"SCALAR",
		"componentType":5123,
		"byteOffset":0,
		"count":99360,
		"min":[0],
		"max":[16823]
	},
	{
		"bufferView":3,
		"type":"VEC3",
		"componentType":5126,
		"byteOffset":0,
		"count":16824,
		"min":[-9.367589950561524,
		-1.1859424114227296,
		-13.14443302154541],
		"max":[9.7159423828125,
		5.801971912384033,
		6.936657905578613]
	},
	{
		"bufferView":3,
		"type":"VEC3",
		"componentType":5126,
		"byteOffset":12,
		"count":16824,
		"min":[-0.9995666742324829,
		-0.998309850692749,
		-0.9998293519020081],
		"max":[0.9993280172348023,
		0.9999864101409912,
		0.9997878670692444]
	},
	{
		"bufferView":3,
		"type":"VEC2",
		"componentType":5126,
		"byteOffset":24,
		"count":16824,
		"min":[0.6468888521194458,
		-0.0010232210624963046],
		"max":[0.9911746978759766,
		0.32842695713043215]
	},
	{
		"bufferView":4,
		"type":"SCALAR",
		"componentType":5123,
		"byteOffset":0,
		"count":102552,
		"min":[0],
		"max":[17381]
	},
	{
		"bufferView":5,
		"type":"VEC3",
		"componentType":5126,
		"byteOffset":0,
		"count":17382,
		"min":[-9.73745346069336,
		-1.4510093927383423,
		-13.526561737060547],
		"max":[10.086592674255371,
		5.898599147796631,
		7.349876880645752]
	},
	{
		"bufferView":5,
		"type":"VEC3",
		"componentType":5126,
		"byteOffset":12,
		"count":17382,
		"min":[-0.9993917346000671,
		-0.9999889135360718,
		-0.9997941851615906],
		"max":[0.9994109869003296,
		0.9998366236686707,
		0.9998286366462708]
	},
	{
		"bufferView":5,
		"type":"VEC2",
		"componentType":5126,
		"byteOffset":24,
		"count":17382,
		"min":[0.06898608803749085,
		0.13733312487602235],
		"max":[0.8872421979904175,
		0.9258455038070679]
	}],
	"bufferViews":[{
		"target":34963,
		"buffer":0,
		"byteLength":321324,
		"byteOffset":0
	},
	{
		"target":34962,
		"buffer":0,
		"byteLength":1145248,
		"byteOffset":321324,
		"byteStride":32
	},
	{
		"target":34963,
		"buffer":1,
		"byteLength":198720,
		"byteOffset":0
	},
	{
		"target":34962,
		"buffer":1,
		"byteLength":538368,
		"byteOffset":198720,
		"byteStride":32
	},
	{
		"target":34963,
		"buffer":2,
		"byteLength":205104,
		"byteOffset":0
	},
	{
		"target":34962,
		"buffer":2,
		"byteLength":556224,
		"byteOffset":205104,
		"byteStride":32
	}],
	"buffers":[{
		"uri":"data:application/octet-stream;base64,",
		"byteLength":1466572
	},
	{
		"uri":"data:application/octet-stream;base64,",
		"byteLength":737088
	},
	{
		"uri":"data:application/octet-stream;base64,",
		"byteLength":761328
	}],
	"images":[{
		"uri":"data:image/jpeg;base64,"
	}],
	"samplers":[{
		"magFilter":9729,
		"minFilter":9729,
		"wrapS":10497,
		"wrapT":10497
	}],
	"textures":[{
		"sampler":0,
		"source":0
	}],
	"materials":[{
		"pbrMetallicRoughness":{
			"baseColorFactor":[0.8,
			0.8,
			0.8,
			1.0],
			"metallicFactor":0.65,
			"roughnessFactor":0.12
		},
		"emissiveFactor":[0.0,
		0.0,
		0.0],
		"alphaMode":"OPAQUE",
		"doubleSided":true,
		"name":"Inner"
	},
	{
		"pbrMetallicRoughness":{
			"baseColorFactor":[0.0,
			0.0,
			0.0,
			1.0],
			"metallicFactor":0.34,
			"roughnessFactor":0.19
		},
		"emissiveFactor":[0.0,
		0.0,
		0.0],
		"alphaMode":"OPAQUE",
		"doubleSided":true,
		"name":"Steel Rust"
	},
	{
		"pbrMetallicRoughness":{
			"baseColorTexture":{
				"index":0
			},
			"baseColorFactor":[0.9486666666666667,
			1.0,
			0.9299999999999999,
			1.0],
			"metallicFactor":1.0,
			"roughnessFactor":0.0
		},
		"emissiveFactor":[0.0,
		0.0,
		0.0],
		"alphaMode":"OPAQUE",
		"doubleSided":true,
		"name":"Outer"
	}]
}