{"accessors" : [{"bufferView" : 0, "byteOffset" : 0, "componentType" : 5123, "count" : 168, "type" : "SCALAR", "max" : [167], "min" : [0]}, {"bufferView" : 1, "byteOffset" : 0, "componentType" : 5126, "count" : 168, "type" : "VEC3", "max" : [13.053004264831543, 65.13623046875, 68.69550323486328], "min" : [-12.074697494506836, 41.672325134277344, 58.4112434387207]}, {"bufferView" : 1, "byteOffset" : 12, "componentType" : 5126, "count" : 168, "type" : "VEC3", "max" : [0.9508550763130188, 0.7507433295249939, 0.999362587928772], "min" : [-0.8984297513961792, -0.7203652858734131, -0.9758653044700623]}, {"bufferView" : 1, "byteOffset" : 24, "componentType" : 5126, "count" : 168, "type" : "VEC2", "max" : [1, 1], "min" : [0, 0]}, {"bufferView" : 0, "byteOffset" : 336, "componentType" : 5123, "count" : 3174, "type" : "SCALAR", "max" : [3173], "min" : [0]}, {"bufferView" : 2, "byteOffset" : 0, "componentType" : 5126, "count" : 3174, "type" : "VEC3", "max" : [22.770727157592773, 12.984325408935547, 7.038784503936768], "min" : [-28.996944427490234, -12.682757377624512, 1.450947628711674E-08]}, {"bufferView" : 2, "byteOffset" : 12, "componentType" : 5126, "count" : 3174, "type" : "VEC3", "max" : [0.0016732723452150822, 0.2936519384384155, -0.9542220234870911], "min" : [-0.23468288779258728, -0.038618531078100204, -1.0000017881393433]}, {"bufferView" : 2, "byteOffset" : 24, "componentType" : 5126, "count" : 3174, "type" : "VEC2", "max" : [1, 1], "min" : [0, 0]}, {"bufferView" : 0, "byteOffset" : 6684, "componentType" : 5125, "count" : 202344, "type" : "SCALAR", "max" : [202343], "min" : [0]}, {"bufferView" : 3, "byteOffset" : 0, "componentType" : 5126, "count" : 202344, "type" : "VEC3", "max" : [26.240924835205078, 14.902798652648926, -1.23369562625885], "min" : [-7.6928887367248535, -7.196135520935059, -14.717218399047852]}, {"bufferView" : 3, "byteOffset" : 12, "componentType" : 5126, "count" : 202344, "type" : "VEC3", "max" : [1.0000044107437134, 1.0000040531158447, 0.9999310374259949], "min" : [-1.0000042915344238, -1.0000044107437134, -0.9998937249183655]}, {"bufferView" : 3, "byteOffset" : 24, "componentType" : 5126, "count" : 202344, "type" : "VEC2", "max" : [4.587184906005859, 1.4856228828430176], "min" : [-0.6325323581695557, -0.4579370617866516]}, {"bufferView" : 0, "byteOffset" : 816060, "componentType" : 5123, "count" : 66, "type" : "SCALAR", "max" : [65], "min" : [0]}, {"bufferView" : 4, "byteOffset" : 0, "componentType" : 5126, "count" : 66, "type" : "VEC3", "max" : [12.828811645507812, 64.82250213623047, 68.36463165283203], "min" : [-11.867308616638184, 41.47160720825195, 58.129905700683594]}, {"bufferView" : 4, "byteOffset" : 12, "componentType" : 5126, "count" : 66, "type" : "VEC3", "max" : [0.6274722814559937, 0.9700940251350403, 0.8879835605621338], "min" : [-0.8320572376251221, -0.9964958429336548, -0.987058162689209]}, {"bufferView" : 4, "byteOffset" : 24, "componentType" : 5126, "count" : 66, "type" : "VEC2", "max" : [1, 1], "min" : [0, 0]}, {"bufferView" : 0, "byteOffset" : 816192, "componentType" : 5125, "count" : 673914, "type" : "SCALAR", "max" : [673913], "min" : [0]}, {"bufferView" : 7, "byteOffset" : 0, "componentType" : 5126, "count" : 673914, "type" : "VEC3", "max" : [67.27067565917969, 69.80319213867188, 45.47032165527344], "min" : [-53.22159957885742, -66.40965270996094, -34.073062896728516]}, {"bufferView" : 7, "byteOffset" : 12, "componentType" : 5126, "count" : 673914, "type" : "VEC3", "max" : [0.9999253153800964, 0.9999056458473206, 0.9999287128448486], "min" : [-1.000001311302185, -0.9999988675117493, -1.0000009536743164]}, {"bufferView" : 7, "byteOffset" : 24, "componentType" : 5126, "count" : 673914, "type" : "VEC2", "max" : [0.953125, 0.9296875], "min" : [0.044921875, 0.04296875]}, {"bufferView" : 0, "byteOffset" : 3511848, "componentType" : 5125, "count" : 142683, "type" : "SCALAR", "max" : [142682], "min" : [0]}, {"bufferView" : 9, "byteOffset" : 0, "componentType" : 5126, "count" : 142683, "type" : "VEC3", "max" : [66.29618072509766, 66.71176147460938, -2.0560789108276367], "min" : [-57.72174072265625, -64.11054992675781, -34.50141525268555]}, {"bufferView" : 9, "byteOffset" : 12, "componentType" : 5126, "count" : 142683, "type" : "VEC3", "max" : [0.9999958872795105, 0.9974603056907654, 1.0000008344650269], "min" : [-0.9999681115150452, -0.9999998807907104, -0.9690706133842468]}, {"bufferView" : 9, "byteOffset" : 24, "componentType" : 5126, "count" : 142683, "type" : "VEC2", "max" : [1, 1], "min" : [0, 0]}], "asset" : {"generator" : "Aspose.3D 20.9.1", "version" : "2.0"}, "buffers" : [{"uri" : "buffer.bin", "byteLength" : 38960072}], "bufferViews" : [{"buffer" : 0, "byteOffset" : 0, "byteLength" : 4082580, "target" : 34963}, {"buffer" : 0, "byteOffset" : 4082584, "byteLength" : 5376, "byteStride" : 32, "target" : 34962}, {"buffer" : 0, "byteOffset" : 4087964, "byteLength" : 101568, "byteStride" : 32, "target" : 34962}, {"buffer" : 0, "byteOffset" : 4189536, "byteLength" : 6475008, "byteStride" : 32, "target" : 34962}, {"buffer" : 0, "byteOffset" : 10664548, "byteLength" : 2112, "byteStride" : 32, "target" : 34962}, {"buffer" : 0, "byteOffset" : 10666664, "byteLength" : 131640}, {"buffer" : 0, "byteOffset" : 10798308, "byteLength" : 78604}, {"buffer" : 0, "byteOffset" : 10876916, "byteLength" : 21565248, "byteStride" : 32, "target" : 34962}, {"buffer" : 0, "byteOffset" : 32442168, "byteLength" : 670960}, {"buffer" : 0, "byteOffset" : 33113132, "byteLength" : 4565856, "byteStride" : 32, "target" : 34962}, {"buffer" : 0, "byteOffset" : 37678992, "byteLength" : 378380}, {"buffer" : 0, "byteOffset" : 38057376, "byteLength" : 902692}], "images" : [{"mimeType" : "image/jpeg", "bufferView" : 5}, {"mimeType" : "image/jpeg", "bufferView" : 6}, {"mimeType" : "image/jpeg", "bufferView" : 8}, {"mimeType" : "image/jpeg", "bufferView" : 10}, {"mimeType" : "image/jpeg", "bufferView" : 11}], "materials" : [{"pbrMetallicRoughness" : {"baseColorFactor" : [0.11372549019607843, 0.13333333333333333, 0.12941176470588237, 1], "metallicFactor" : 0.2, "roughnessFactor" : 0.6}, "emissiveFactor" : [0, 0, 0], "alphaMode" : "OPAQUE", "doubleSided" : true}, {"pbrMetallicRoughness" : {"baseColorFactor" : [0.1450980392156863, 0.20392156862745098, 0.18823529411764706, 1], "metallicFactor" : 0.3, "roughnessFactor" : 0.2}, "emissiveFactor" : [0, 0, 0], "alphaMode" : "OPAQUE", "doubleSided" : true}, {"pbrMetallicRoughness" : {"baseColorFactor" : [0.8, 0.8, 0.8, 1], "metallicFactor" : 1, "roughnessFactor" : 0.1}, "emissiveFactor" : [0, 0, 0], "alphaMode" : "OPAQUE", "doubleSided" : true}, {"pbrMetallicRoughness" : {"baseColorFactor" : [0.2980392156862745, 0.011764705882352941, 0.011764705882352941, 1], "baseColorTexture" : {"index" : 1, "texCoord" : 0}, "metallicFactor" : 0.29999998211860657, "roughnessFactor" : 0}, "normalTexture" : {"index" : 0, "texCoord" : 0, "scale" : 1}, "emissiveFactor" : [0, 0, 0], "alphaMode" : "OPAQUE", "doubleSided" : true}, {"pbrMetallicRoughness" : {"baseColorFactor" : [0.9450980392156862, 1, 0.9294117647058824, 1], "baseColorTexture" : {"index" : 2, "texCoord" : 0}, "metallicFactor" : 1, "roughnessFactor" : 0}, "emissiveFactor" : [0, 0, 0], "alphaMode" : "OPAQUE", "doubleSided" : true}, {"pbrMetallicRoughness" : {"baseColorFactor" : [0.10980392156862745, 0.12156862745098039, 0.12941176470588237, 1], "baseColorTexture" : {"index" : 4, "texCoord" : 0}, "metallicFactor" : 0.29999998211860657, "roughnessFactor" : 0}, "normalTexture" : {"index" : 3, "texCoord" : 0, "scale" : 1}, "emissiveFactor" : [0, 0, 0], "alphaMode" : "OPAQUE", "doubleSided" : true}], "meshes" : [{"primitives" : [{"attributes" : {"POSITION" : 1, "NORMAL" : 2, "TEXCOORD_0" : 3}, "indices" : 0, "material" : 0, "mode" : 4}]}, {"primitives" : [{"attributes" : {"POSITION" : 5, "NORMAL" : 6, "TEXCOORD_0" : 7}, "indices" : 4, "material" : 1, "mode" : 4}]}, {"primitives" : [{"attributes" : {"POSITION" : 9, "NORMAL" : 10, "TEXCOORD_0" : 11}, "indices" : 8, "material" : 2, "mode" : 4}]}, {"primitives" : [{"attributes" : {"POSITION" : 13, "NORMAL" : 14, "TEXCOORD_0" : 15}, "indices" : 12, "material" : 3, "mode" : 4}]}, {"primitives" : [{"attributes" : {"POSITION" : 17, "NORMAL" : 18, "TEXCOORD_0" : 19}, "indices" : 16, "material" : 4, "mode" : 4}]}, {"primitives" : [{"attributes" : {"POSITION" : 21, "NORMAL" : 22, "TEXCOORD_0" : 23}, "indices" : 20, "material" : 5, "mode" : 4}]}], "nodes" : [{"matrix" : [-1.0000000041324575, 2.5910386139578496E-26, -1.2246468160273094E-16, 0, -1.813711086270686E-18, 0.9998903248251172, 0.01481007500233332, 0, 1.2245125026768744E-16, 0.014810075063528615, -0.9998903289566685, 0, -2.6379263401031494, -15.826752662658691, 23.991086959838867, 1], "mesh" : 0, "name" : "GEM"}, {"matrix" : [0.9755115180411662, 0.21994835981806204, 0, 0, -0.21994835981806204, 0.9755115180411662, 0, 0, 0, 0, 1, 0, 0, 40.0880012512207, -24.731157302856445, 1], "mesh" : 1, "name" : "Metal"}, {"matrix" : [1, 0, 0, 0, 0, 1, 0, 0, 0, 0, 1, 0, 14.250320434570312, 20.40380096435547, -13.272024154663086, 1], "mesh" : 2, "name" : "MFDoom"}, {"matrix" : [-1.0000000041324575, 2.5910386139578496E-26, -1.2246468160273094E-16, 0, -1.813711086270686E-18, 0.9998903248251172, 0.01481007500233332, 0, 1.2245125026768744E-16, 0.014810075063528615, -0.9998903289566685, 0, -2.6379263401031494, -15.832348823547363, 24.368886947631836, 1], "mesh" : 3, "name" : "GEM"}, {"matrix" : [0.8662846046097722, 0, 0.4995507910596757, 0, 0, 1, 0, 0, -0.4995507910596757, 0, 0.8662846046097722, 0, 0, 0, -21.104677200317383, 1], "mesh" : 4, "name" : "SludgeFront"}, {"mesh" : 5, "name" : "Back"}, {"children" : [0, 1, 2, 3, 4, 5], "name" : "Sludge"}], "samplers" : [{"magFilter" : 9729, "minFilter" : 9729, "wrapS" : 10497, "wrapT" : 10497}, {"magFilter" : 9729, "minFilter" : 9729, "wrapS" : 10497, "wrapT" : 10497}, {"magFilter" : 9729, "minFilter" : 9729, "wrapS" : 10497, "wrapT" : 10497}, {"magFilter" : 9729, "minFilter" : 9729, "wrapS" : 10497, "wrapT" : 10497}, {"magFilter" : 9729, "minFilter" : 9729, "wrapS" : 10497, "wrapT" : 10497}], "scene" : 0, "scenes" : [{"nodes" : [6]}], "textures" : [{"sampler" : 0, "source" : 0}, {"sampler" : 1, "source" : 1}, {"sampler" : 2, "source" : 2}, {"sampler" : 3, "source" : 3}, {"sampler" : 4, "source" : 4}]}